<?xml version="1.0" encoding="utf-8"?>
<svg width="51px" height="6px" viewbox="0 0 51 6" version="1.1" xmlns:xlink="http://www.w3.org/1999/xlink" xmlns="http://www.w3.org/2000/svg">
  <path d="M0 2.41309L1.78627 1.20616Q1.98288 1.07333 2.19698 0.97105Q2.41108 0.868774 2.63795 0.799311Q2.86483 0.729849 3.09949 0.694731Q3.33415 0.659613 3.57143 0.659613Q3.8087 0.659613 4.04336 0.694731Q4.27802 0.729849 4.5049 0.799311Q4.73178 0.868774 4.94588 0.97105Q5.15998 1.07333 5.35658 1.20616L7.14342 2.41346Q7.33978 2.54614 7.54545 2.66388Q7.75111 2.78162 7.96495 2.88377Q8.17879 2.98592 8.39962 3.07192Q8.62044 3.15792 8.84704 3.2273Q9.07364 3.29668 9.30477 3.34905Q9.53589 3.40142 9.77027 3.43649Q10.0046 3.47157 10.241 3.48915Q10.4773 3.50674 10.7143 3.50674Q10.9513 3.50674 11.1876 3.48915Q11.4239 3.47157 11.6583 3.43649Q11.8927 3.40142 12.1238 3.34905Q12.3549 3.29667 12.5815 3.2273Q12.8081 3.15792 13.029 3.07192Q13.2498 2.98592 13.4636 2.88377Q13.6775 2.78162 13.8831 2.66388Q14.0888 2.54614 14.2852 2.41346L14.2863 2.41271Q14.4826 2.28003 14.6883 2.16229Q14.894 2.04456 15.1078 1.9424Q15.3216 1.84025 15.5425 1.75425Q15.7633 1.66825 15.9899 1.59887Q16.2165 1.5295 16.4476 1.47713Q16.6788 1.42475 16.9131 1.38968Q17.1475 1.3546 17.3838 1.33702Q17.6202 1.31943 17.8571 1.31943Q18.0941 1.31943 18.3305 1.33702Q18.5668 1.3546 18.8012 1.38968Q19.0355 1.42475 19.2667 1.47713Q19.4978 1.5295 19.7244 1.59887Q19.951 1.66825 20.1718 1.75425Q20.3926 1.84025 20.6065 1.9424Q20.8203 2.04456 21.026 2.16229Q21.2316 2.28003 21.428 2.41271L21.4291 2.41346Q21.6255 2.54614 21.8312 2.66388Q22.0368 2.78162 22.2507 2.88377Q22.4645 2.98592 22.6853 3.07192Q22.9062 3.15792 23.1328 3.2273Q23.3594 3.29668 23.5905 3.34905Q23.8216 3.40142 24.056 3.43649Q24.2904 3.47157 24.5267 3.48915Q24.763 3.50674 25 3.50674Q25.237 3.50674 25.4733 3.48915Q25.7096 3.47157 25.944 3.43649Q26.1784 3.40142 26.4095 3.34905Q26.6406 3.29668 26.8672 3.2273Q27.0938 3.15792 27.3147 3.07192Q27.5355 2.98592 27.7493 2.88377Q27.9632 2.78162 28.1688 2.66388Q28.3745 2.54614 28.5709 2.41346L28.572 2.41271Q28.7683 2.28003 28.974 2.16229Q29.1797 2.04456 29.3935 1.94241Q29.6074 1.84025 29.8282 1.75425Q30.049 1.66825 30.2756 1.59887Q30.5022 1.5295 30.7333 1.47713Q30.9645 1.42476 31.1988 1.38968Q31.4332 1.35461 31.6695 1.33702Q31.9059 1.31943 32.1429 1.31943Q32.3798 1.31943 32.6162 1.33702Q32.8525 1.35461 33.0869 1.38968Q33.3212 1.42476 33.5524 1.47713Q33.7835 1.5295 34.0101 1.59887Q34.2367 1.66825 34.4575 1.75425Q34.6784 1.84025 34.8922 1.9424Q35.106 2.04456 35.3117 2.16229Q35.5174 2.28003 35.7137 2.41271L35.7148 2.41347Q35.9112 2.54614 36.1169 2.66388Q36.3225 2.78162 36.5364 2.88377Q36.7502 2.98592 36.971 3.07192Q37.1919 3.15792 37.4185 3.2273Q37.6451 3.29668 37.8762 3.34905Q38.1073 3.40142 38.3417 3.43649Q38.5761 3.47157 38.8124 3.48915Q39.0487 3.50674 39.2857 3.50674Q39.5227 3.50674 39.759 3.48915Q39.9953 3.47157 40.2297 3.43649Q40.4641 3.40142 40.6952 3.34905Q40.9263 3.29668 41.153 3.2273Q41.3796 3.15792 41.6004 3.07192Q41.8212 2.98592 42.035 2.88377Q42.2489 2.78162 42.4545 2.66388Q42.6602 2.54614 42.8566 2.41347L44.6434 1.20617Q44.84 1.07333 45.0541 0.971052Q45.2682 0.868775 45.4951 0.799313Q45.722 0.729851 45.9566 0.694733Q46.1913 0.659615 46.4286 0.659615Q46.6658 0.659615 46.9005 0.694732Q47.1352 0.72985 47.362 0.799313Q47.5889 0.868775 47.803 0.971052Q48.0171 1.07333 48.2137 1.20617L50 2.41309" transform="matrix(1 0 0 -1 0.5 5.326172)" id="Line-2" fill="none" fill-rule="evenodd" stroke="#D5814C" stroke-width="1" stroke-linecap="square" />
</svg>