<?xml version="1.0" encoding="utf-8"?>
<svg width="50px" height="50px" viewbox="0 0 50 50" version="1.1" xmlns:xlink="http://www.w3.org/1999/xlink" xmlns="http://www.w3.org/2000/svg">
  <g id="Group-32" transform="translate(0.5 0.5)">
    <path d="M0 0L34 0L34 34L0 34L0 0Z" transform="matrix(0.70710665 0.7071069 -0.7071069 0.70710665 24.041992 0)" id="Rectangle" fill="#1FC5F0" fill-rule="evenodd" stroke="none" />
    <path d="M4.80686 12C10.5735 12 13.7257 7.38583 13.7257 3.37992C13.7257 3.25 13.7257 3.12205 13.7176 2.98819C14.3309 2.56102 14.8628 2.02756 15.2825 1.42323C14.7201 1.66142 14.1149 1.82677 13.4833 1.89961C14.1272 1.52362 14.6243 0.931102 14.8607 0.224409C14.2555 0.568898 13.5851 0.822835 12.8699 0.958661C12.2973 0.370079 11.4823 0 10.5816 0C8.84756 0 7.44564 1.35827 7.44564 3.02953C7.44564 3.26772 7.47417 3.5 7.52511 3.72244C4.92097 3.59252 2.61025 2.3878 1.06163 0.555118C0.792653 1.00394 0.639828 1.52362 0.639828 2.07677C0.639828 3.12992 1.19407 4.05709 2.03563 4.59843C1.5201 4.58268 1.03514 4.44882 0.613338 4.22244L0.613338 4.25591C0.613338 5.72441 1.69534 6.95276 3.12782 7.22835C2.86496 7.29724 2.58988 7.33661 2.30257 7.33661C2.10084 7.33661 1.90318 7.31693 1.7096 7.27953C2.11306 8.48622 3.27046 9.35827 4.64385 9.38583C3.57 10.1968 2.21698 10.6811 0.747824 10.6811C0.493116 10.6811 0.246558 10.6693 0 10.6398C1.38561 11.5 3.03613 12 4.80686 12" transform="translate(16.40039 18.041504)" id="Fill-3" fill="#FFFFFF" fill-rule="evenodd" stroke="none" />
  </g>
</svg>