<?xml version="1.0" encoding="utf-8"?>
<svg width="51px" height="51px" viewbox="0 0 51 51" version="1.1" xmlns:xlink="http://www.w3.org/1999/xlink" xmlns="http://www.w3.org/2000/svg">
  <defs>
    <linearGradient x1="0.5" y1="1" x2="0.5" y2="3.061617E-17" id="gradient_1">
      <stop offset="0" stop-color="#F7B40D" />
      <stop offset="0.5209517" stop-color="#E73F40" />
      <stop offset="1" stop-color="#9C24AA" />
    </linearGradient>
  </defs>
  <g id="Group-30" transform="translate(1 1)">
    <path d="M0 0L34 0L34 34L0 34L0 0Z" transform="matrix(0.70710665 0.7071069 -0.7071069 0.70710665 24.041992 0)" id="Rectangle" fill="url(#gradient_1)" fill-rule="evenodd" stroke="none" />
    <path d="M2.24376 0.393631C2.58929 0.259092 3.10402 0.100091 4.05653 0.0572826C5.086 0.0109072 5.39382 0.000205231 8.00009 0.000205231C10.6064 0.000205231 10.9147 0.0109072 11.9436 0.0572826C12.8956 0.100091 13.4104 0.259092 13.7554 0.393631C14.2115 0.569959 14.5351 0.781961 14.8776 1.12341C15.2196 1.46434 15.4306 1.7905 15.6069 2.24508C15.7415 2.58907 15.901 3.10633 15.9443 4.05779C15.9902 5.0862 16.0003 5.39452 16.0003 8.00021C16.0003 10.6064 15.9902 10.9142 15.9443 11.9441C15.901 12.8946 15.7415 13.4118 15.6069 13.7564C15.4306 14.2114 15.2196 14.5361 14.8776 14.877C14.5351 15.219 14.2115 15.4305 13.7554 15.6083C13.4104 15.7418 12.8956 15.8993 11.9436 15.9436C10.9147 15.9915 10.6064 16.0002 8.00009 16.0002C5.39382 16.0002 5.08498 15.9915 4.05653 15.9436C3.10402 15.8993 2.58929 15.7418 2.24376 15.6083C1.78917 15.4305 1.46453 15.219 1.12307 14.877C0.781616 14.5361 0.569608 14.2114 0.392764 13.7564C0.260259 13.4118 0.100743 12.8946 0.0558955 11.9441C0.00900902 10.9142 0.000345222 10.6064 0.000345222 8.00021C0.000345222 5.39452 0.00900902 5.0862 0.0558955 4.05779C0.100743 3.10633 0.260259 2.58907 0.392764 2.24508C0.569608 1.7905 0.780597 1.46434 1.12307 1.12341C1.46453 0.781961 1.78917 0.569959 2.24376 0.393631ZM12.311 2.80021C11.8201 2.80021 11.4221 3.19817 11.4221 3.68909C11.4221 4.18001 11.8201 4.57798 12.311 4.57798C12.8019 4.57798 13.1999 4.18001 13.1999 3.68909C13.1999 3.19817 12.8019 2.80021 12.311 2.80021ZM12.0003 8.00021C12.0003 10.2093 10.2095 12.0002 8.00035 12.0002C5.79121 12.0002 4.00035 10.2093 4.00035 8.00021C4.00035 5.79107 5.79121 4.00021 8.00035 4.00021C10.2095 4.00021 12.0003 5.79107 12.0003 8.00021ZM10.6673 8.00016C10.6673 9.47292 9.47341 10.6668 8.00065 10.6668C6.52789 10.6668 5.33398 9.47292 5.33398 8.00016C5.33398 6.5274 6.52789 5.3335 8.00065 5.3335C9.47341 5.3335 10.6673 6.5274 10.6673 8.00016Z" transform="translate(16.041016 16.041016)" id="Combined-Shape" fill="#FFFFFF" fill-rule="evenodd" stroke="none" />
  </g>
</svg>