<?xml version="1.0" encoding="utf-8"?>
<svg width="35px" height="35px" viewbox="0 0 35 35" version="1.1" xmlns:xlink="http://www.w3.org/1999/xlink" xmlns="http://www.w3.org/2000/svg">
  <g id="Group-31" transform="translate(0.5 0.5)">
    <path d="M16.999 0L17.001 0Q17.4183 0 17.8351 0.020476Q18.2519 0.0409521 18.6672 0.0818548Q19.0825 0.122758 19.4953 0.183988Q19.9081 0.245219 20.3173 0.326631Q20.7266 0.408043 21.1314 0.509439Q21.5362 0.610835 21.9355 0.731971Q22.3349 0.853108 22.7278 0.993692Q23.1207 1.13428 23.5062 1.29397Q23.8918 1.45367 24.269 1.63209Q24.6462 1.81051 25.0143 2.00722Q25.3823 2.20394 25.7402 2.41847Q26.0982 2.63301 26.4451 2.86485Q26.7921 3.09669 27.1273 3.34528Q27.4625 3.59386 27.785 3.8586Q28.1076 4.12333 28.4168 4.40357Q28.726 4.68382 29.0211 4.97889Q29.3162 5.27397 29.5964 5.58317Q29.8767 5.89237 30.1414 6.21495Q30.4061 6.53753 30.6547 6.87271Q30.9033 7.20789 31.1351 7.55486Q31.367 7.90183 31.5815 8.25977Q31.7961 8.6177 31.9928 8.98573Q32.1895 9.35375 32.3679 9.73099Q32.5463 10.1082 32.706 10.4938Q32.8657 10.8793 33.0063 11.2722Q33.1469 11.6651 33.268 12.0645Q33.3892 12.4638 33.4906 12.8686Q33.592 13.2734 33.6734 13.6827Q33.7548 14.0919 33.816 14.5047Q33.8772 14.9175 33.9181 15.3328Q33.959 15.7481 33.9795 16.1649Q34 16.5817 34 16.999L34 34L0 34L0 16.999Q0 16.5817 0.020476 16.1649Q0.0409521 15.7481 0.0818548 15.3328Q0.122758 14.9175 0.183988 14.5047Q0.245219 14.0919 0.326631 13.6827Q0.408043 13.2734 0.509439 12.8686Q0.610835 12.4638 0.731971 12.0645Q0.853108 11.6651 0.993692 11.2722Q1.13428 10.8793 1.29397 10.4938Q1.45367 10.1082 1.63209 9.73099Q1.81051 9.35375 2.00722 8.98573Q2.20394 8.6177 2.41847 8.25977Q2.63301 7.90183 2.86485 7.55486Q3.09669 7.20789 3.34528 6.87271Q3.59386 6.53753 3.8586 6.21495Q4.12333 5.89237 4.40357 5.58317Q4.68382 5.27397 4.97889 4.97889Q5.27397 4.68382 5.58317 4.40357Q5.89237 4.12333 6.21495 3.8586Q6.53753 3.59386 6.87271 3.34528Q7.20789 3.09669 7.55486 2.86485Q7.90183 2.63301 8.25977 2.41847Q8.6177 2.20394 8.98573 2.00722Q9.35375 1.81051 9.73099 1.63209Q10.1082 1.45367 10.4938 1.29397Q10.8793 1.13428 11.2722 0.993692Q11.6651 0.853108 12.0645 0.731971Q12.4638 0.610835 12.8686 0.509439Q13.2734 0.408043 13.6827 0.326631Q14.0919 0.245219 14.5047 0.183988Q14.9175 0.122758 15.3328 0.0818548Q15.7481 0.0409521 16.1649 0.020476Q16.5817 0 16.999 0Z" id="Rectangle" fill="#4658A9" fill-rule="evenodd" stroke="none" />
    <path d="M5.76876 15.7063L5.76876 8.54036L8.39303 8.54036L8.78141 5.7475L5.76876 5.7475L5.76876 3.96622C5.76876 3.15565 6.0164 2.60656 7.27954 2.60656L8.89009 2.60656L8.89009 0.107858C8.61216 0.0768076 7.65546 0 6.54197 0C4.217 0 2.62605 1.30246 2.62605 3.6884L2.62605 5.7475L0 5.7475L0 8.54036L2.62605 8.54036L2.62605 15.7063L5.76876 15.7063Z" transform="translate(12.84668 10.374023)" id="Fill-8" fill="#FFFFFF" fill-rule="evenodd" stroke="none" />
  </g>
</svg>