<?xml version="1.0" encoding="utf-8"?>
<svg width="1196px" height="173px" viewbox="0 0 1196 173" version="1.1" xmlns:xlink="http://www.w3.org/1999/xlink" xmlns="http://www.w3.org/2000/svg">
  <path d="M0 138.562C0 138.562 1028.74 138.455 1043.46 138.532C1068.55 138.663 1103.69 139.311 1110.3 141.858C1120.77 145.901 1127.08 161.379 1118.64 168.549C1111.08 174.969 1097.84 168.416 1095.53 158.623C1093.22 148.832 1107.44 133.179 1107.44 133.179C1107.44 133.179 1125.59 125.334 1135.19 122.744C1144.8 120.155 1154.67 116.861 1161.6 109.764C1174.44 96.6132 1173.09 75.4849 1171.59 56.9479C1170.08 38.4117 1171.59 17.8502 1195.22 0" transform="translate(-0.0048828125 0.75)" id="Stroke-8" fill="none" fill-rule="evenodd" stroke="#231F20" stroke-width="1.5" />
</svg>