<?xml version="1.0" encoding="utf-8"?>
<svg width="1699px" height="173px" viewbox="0 0 1699 173" version="1.1" xmlns:xlink="http://www.w3.org/1999/xlink" xmlns="http://www.w3.org/2000/svg">
  <path d="M0 138.403L9.2086 138.403L516.079 138.374L774.178 138.362L1225.21 138.351L1548.25 138.379C1574.66 138.52 1593.41 139.071 1604.51 140.034C1606.5 137.422 1608.92 135.13 1611.8 133.159C1616.73 129.771 1625.04 126.53 1636.71 123.436C1638.14 123.058 1639.16 122.786 1639.78 122.619C1652.08 119.294 1660.76 115.034 1665.84 109.839C1671.42 104.128 1674.81 96.144 1676.01 85.8877C1676.76 79.4565 1676.63 70.0298 1675.62 57.6074C1674.69 46.1133 1675.5 36.439 1678.05 28.584C1681.48 18.0083 1688.34 8.71729 1698.62 0.710938C1698.92 0.474121 1699.23 0.237305 1699.55 0L1700.45 1.19727C1689.9 9.16943 1682.91 18.4526 1679.47 29.0469C1676.99 36.7183 1676.2 46.1978 1677.12 57.4863C1678.14 70.0103 1678.26 79.5356 1677.5 86.0615C1676.26 96.6553 1672.73 104.93 1666.92 110.887C1661.65 116.29 1652.73 120.683 1640.17 124.067C1639.54 124.239 1638.51 124.512 1637.1 124.886C1625.59 127.933 1617.44 131.103 1612.64 134.395C1610.18 136.083 1608.07 138.018 1606.29 140.198C1610.78 140.639 1613.8 141.159 1615.35 141.757C1620.99 143.929 1624.89 148.137 1627.06 154.383C1629.32 160.903 1628.27 166.015 1623.91 169.719C1619.96 173.075 1615.19 173.484 1609.59 170.947C1604.15 168.481 1600.82 164.63 1599.58 159.394C1598.43 154.537 1599.13 149.604 1601.66 144.594C1602.22 143.497 1602.83 142.444 1603.51 141.436C1592.45 140.536 1574.03 140.018 1548.25 139.879L1225.21 139.851L774.178 139.862L516.079 139.874L8.51154e-05 139.903L0 138.403L0 138.403ZM1603 145.271C1603.66 143.979 1604.4 142.75 1605.23 141.584C1610.04 142.025 1613.23 142.549 1614.81 143.156C1620.01 145.161 1623.62 149.067 1625.64 154.875C1627.68 160.75 1626.78 165.316 1622.94 168.575C1619.47 171.519 1615.23 171.854 1610.21 169.581C1605.22 167.32 1602.16 163.81 1601.04 159.049C1599.98 154.549 1600.63 149.957 1603 145.271L1603 145.271Z" id="Vector" fill="#231F20" fill-rule="evenodd" stroke="none" />
</svg>