<?xml version="1.0" encoding="utf-8"?>
<svg width="122px" height="24px" viewbox="0 0 122 24" version="1.1" xmlns:xlink="http://www.w3.org/1999/xlink" xmlns="http://www.w3.org/2000/svg">
  <g id="Group-13" transform="translate(0.5 0.5)">
    <path d="M11.4766 17.2148L4.73081 20.7613L6.01913 13.2498L0.561703 7.93011L8.10369 6.8342L11.4766 0L14.8494 6.8342L22.3914 7.93011L16.934 13.2498L18.2223 20.7613L11.4766 17.2148Z" transform="translate(48.976562 0)" id="Star" fill="#FFDB8A" fill-rule="evenodd" stroke="none" />
    <path d="M11.4766 17.2148L4.73081 20.7613L6.01913 13.2498L0.561703 7.93011L8.10369 6.8342L11.4766 0L14.8494 6.8342L22.3914 7.93011L16.934 13.2498L18.2223 20.7613L11.4766 17.2148Z" transform="translate(73.46484 0)" id="Star-Copy-3" fill="#FFDB8A" fill-rule="evenodd" stroke="none" />
    <path d="M11.4766 17.2148L4.73081 20.7613L6.01913 13.2498L0.561703 7.93011L8.10369 6.8342L11.4766 0L14.8494 6.8342L22.3914 7.93011L16.934 13.2498L18.2223 20.7613L11.4766 17.2148Z" transform="translate(97.953125 0)" id="Star-Copy-4" fill="#FFDB8A" fill-rule="evenodd" stroke="none" />
    <path d="M10.9149 17.2148L4.16911 20.7613L5.45743 13.2498L0 7.93011L7.54198 6.8342L10.9149 0L14.2877 6.8342L21.8297 7.93011L16.3723 13.2498L17.6606 20.7613L10.9149 17.2148Z" transform="translate(25.049805 0)" id="Star-Copy" fill="#FFDB8A" fill-rule="evenodd" stroke="none" />
    <path d="M11.4766 17.2148L4.73081 20.7613L6.01913 13.2498L0.561703 7.93011L8.10369 6.8342L11.4766 0L14.8494 6.8342L22.3914 7.93011L16.934 13.2498L18.2223 20.7613L11.4766 17.2148Z" id="Star-Copy-2" fill="#FFDB8A" fill-rule="evenodd" stroke="none" />
  </g>
</svg>